<svg id="Capa_1" data-name="Capa 1" xmlns="http://www.w3.org/2000/svg" viewBox="0 0 61.16 48.38"><title>joystick-navbar</title><rect x="28.66" y="17.81" width="3.8" height="2.38" fill="none" stroke="#fff" stroke-linecap="round" stroke-linejoin="round"/><path d="M300.55,397H287.17a3,3,0,0,0-3,3h0a3,3,0,0,0,3,3h25.32a2.86,2.86,0,0,1,2.87,2.87h0a2.87,2.87,0,0,1-2.87,2.87H299.88a2.87,2.87,0,0,0-2.87,2.87h0V414" transform="translate(-266.59 -396.47)" fill="none" stroke="#fff" stroke-linecap="round" stroke-linejoin="round"/><path d="M287.29,432.22a3.35,3.35,0,0,1,3.36-3.36h.25A10.15,10.15,0,0,0,292,424.2a10.31,10.31,0,1,0-4.67,8.63A3.08,3.08,0,0,1,287.29,432.22Z" transform="translate(-266.59 -396.47)" fill="none" stroke="#fff" stroke-linecap="round" stroke-linejoin="round"/><path d="M312.7,413.9a10.3,10.3,0,0,0-10.3,10.3,10.15,10.15,0,0,0,1.12,4.67h.25a3.36,3.36,0,0,1,3.36,3.36,3.08,3.08,0,0,1-.06.61,10.3,10.3,0,1,0,5.63-18.93Z" transform="translate(-266.59 -396.47)" fill="none" stroke="#fff" stroke-linecap="round" stroke-linejoin="round"/><path d="M300.41,432.35v-.13a3.36,3.36,0,0,1,3.11-3.35,10.15,10.15,0,0,1-1.12-4.67,10.27,10.27,0,0,1,3.29-7.54h-17A10.27,10.27,0,0,1,292,424.2a10.15,10.15,0,0,1-1.12,4.67,3.36,3.36,0,0,1,3.11,3.35v.13Z" transform="translate(-266.59 -396.47)" fill="none" stroke="#fff" stroke-linecap="round" stroke-linejoin="round"/><path d="M294,432.22a3.36,3.36,0,1,1-3.36-3.36A3.35,3.35,0,0,1,294,432.22Z" transform="translate(-266.59 -396.47)" fill="none" stroke="#fff" stroke-linecap="round" stroke-linejoin="round"/><path d="M326.68,436.66c-2.13-6.3-3.42-12.75-3.74-13.65a11.7,11.7,0,0,1,.07,1.19,10.3,10.3,0,0,1-15.94,8.63,2.82,2.82,0,0,1-.07.31c2.66,2.72,6.58,5.24,11,9.35,1.85,1.72,5.42,2.62,7.39,1C327.76,441.62,327.49,439.05,326.68,436.66Z" transform="translate(-266.59 -396.47)" fill="none" stroke="#fff" stroke-linecap="round" stroke-linejoin="round"/><path d="M267.68,436.66c2.12-6.3,3.41-12.75,3.74-13.65a9.39,9.39,0,0,0-.08,1.19,10.3,10.3,0,0,0,15.94,8.63c0,.11.05.21.07.31-2.66,2.72-6.58,5.24-11,9.35-1.85,1.72-5.42,2.62-7.39,1C266.59,441.62,266.87,439.05,267.68,436.66Z" transform="translate(-266.59 -396.47)" fill="none" stroke="#fff" stroke-linecap="round" stroke-linejoin="round"/><path d="M307.13,432.22a3.36,3.36,0,1,1-3.36-3.36A3.36,3.36,0,0,1,307.13,432.22Z" transform="translate(-266.59 -396.47)" fill="none" stroke="#fff" stroke-linecap="round" stroke-linejoin="round"/><line x1="27.31" y1="29.27" x2="29.42" y2="29.27" fill="none" stroke="#fff" stroke-linecap="round" stroke-linejoin="round"/><line x1="31.81" y1="29.27" x2="33.92" y2="29.27" fill="none" stroke="#fff" stroke-linecap="round" stroke-linejoin="round"/><line x1="14.87" y1="23.49" x2="14.87" y2="31.97" fill="none" stroke="#fff" stroke-linecap="round" stroke-linejoin="round"/><line x1="19.12" y1="27.73" x2="10.63" y2="27.73" fill="none" stroke="#fff" stroke-linecap="round" stroke-linejoin="round"/><path d="M311,421a1.65,1.65,0,1,1-1.65-1.65A1.65,1.65,0,0,1,311,421Z" transform="translate(-266.59 -396.47)" fill="none" stroke="#fff" stroke-linecap="round" stroke-linejoin="round"/><path d="M318,421a1.65,1.65,0,1,1-1.65-1.65A1.65,1.65,0,0,1,318,421Z" transform="translate(-266.59 -396.47)" fill="none" stroke="#fff" stroke-linecap="round" stroke-linejoin="round"/><path d="M311,427.37a1.65,1.65,0,1,1-1.65-1.65A1.65,1.65,0,0,1,311,427.37Z" transform="translate(-266.59 -396.47)" fill="none" stroke="#fff" stroke-linecap="round" stroke-linejoin="round"/><path d="M318,427.37a1.65,1.65,0,1,1-1.65-1.65A1.65,1.65,0,0,1,318,427.37Z" transform="translate(-266.59 -396.47)" fill="none" stroke="#fff" stroke-linecap="round" stroke-linejoin="round"/></svg>