<svg id="Capa_1" data-name="Capa 1" xmlns="http://www.w3.org/2000/svg" viewBox="0 0 53.96 53.85"><title>logo-mail</title><path d="M296.33,393.89h3.34a5.64,5.64,0,0,0,.78.21,26.87,26.87,0,1,1-28.76,32.06c-.31-1.66-.46-3.35-.69-5v-.48a4.81,4.81,0,0,0,.19-.9A26.7,26.7,0,0,1,290.65,395C292.51,394.53,294.43,394.27,296.33,393.89Zm-21.17,27.5A22.89,22.89,0,1,0,296.74,398,22.74,22.74,0,0,0,275.16,421.39Z" transform="translate(-271 -393.89)"/><path d="M313.68,412.69l.72-.53v18.69H281.57V411.33l4,3.26c3.69,3,7.4,6,11.05,9.1a1.8,1.8,0,0,0,2.69.06" transform="translate(-271 -393.89)"/><path d="M313.16,410.94,298,422.57l-14.18-11.63Z" transform="translate(-271 -393.89)"/></svg>