<svg id="Capa_1" data-name="Capa 1" xmlns="http://www.w3.org/2000/svg" viewBox="0 0 53.96 53.85"><title>logo-telefono</title><path d="M296.33,393.89h3.34a5.64,5.64,0,0,0,.78.21,26.87,26.87,0,1,1-28.76,32.06c-.31-1.66-.46-3.35-.69-5v-.48a4.81,4.81,0,0,0,.19-.9A26.7,26.7,0,0,1,290.65,395C292.51,394.53,294.43,394.27,296.33,393.89ZM320.94,421c.06-12.38-10.14-22.92-22.25-23-13.15-.08-23.56,10-23.58,22.89a22.92,22.92,0,0,0,45.83.11Z" transform="translate(-271 -393.89)"/><path d="M314.33,431.3c.35,4.22-2.67,6.39-6.19,5.88-.55-.08-1.11,0-1.67-.09a27.44,27.44,0,0,1-24.72-27.83,4.71,4.71,0,0,1,3.83-4.57,20.92,20.92,0,0,1,3.8-.09,1,1,0,0,1,.73.62c.79,2.25,1.56,4.51,2.25,6.79a1.36,1.36,0,0,1-.45,1.15c-.83.67-1.81,1.16-2.63,1.84a1.38,1.38,0,0,0-.37,1.25A25.67,25.67,0,0,0,302.58,430a1,1,0,0,0,1.4-.42c.49-.78,1.06-1.5,1.5-2.3a1.3,1.3,0,0,1,1.85-.67c1.9.7,3.82,1.36,5.77,1.92,1,.28,1.39.77,1.24,1.77A6.14,6.14,0,0,0,314.33,431.3Z" transform="translate(-271 -393.89)"/></svg>