<svg id="Capa_1" data-name="Capa 1" xmlns="http://www.w3.org/2000/svg" viewBox="0 0 32.1 31.97"><title>logo-instagram</title><path d="M313.4,419.43v2.86c-.07.3-.16.6-.21.91a16,16,0,1,1-23.28-16.47,41.92,41.92,0,0,1,5.37-1.84h4.05c.23.07.45.16.68.21,6.57,1.3,10.81,5.19,12.78,11.56C313.07,417.56,313.2,418.5,313.4,419.43Zm-7.61,1.75h0c0-1.43.06-2.86,0-4.29a4.38,4.38,0,0,0-4.18-4.38,69.58,69.58,0,0,0-8.42,0c-3,.17-4.58,1.78-4.75,4.74a73.82,73.82,0,0,0,0,7.73c.16,3,1.71,4.59,4.71,4.78a71.85,71.85,0,0,0,8.43,0,4.41,4.41,0,0,0,4.23-4.46C305.85,423.87,305.79,422.52,305.79,421.18Z" transform="translate(-281.3 -404.89)"/><path d="M305.79,421.18c0,1.34.06,2.69,0,4a4.41,4.41,0,0,1-4.23,4.46,71.85,71.85,0,0,1-8.43,0c-3-.19-4.55-1.82-4.71-4.78a73.82,73.82,0,0,1,0-7.73c.17-3,1.73-4.57,4.75-4.74a69.58,69.58,0,0,1,8.42,0,4.38,4.38,0,0,1,4.18,4.38c.08,1.43,0,2.86,0,4.29ZM297.18,414c-1.23,0-2.46,0-3.69,0-2.2.09-3.39,1.25-3.44,3.42q-.09,3.69,0,7.38a3.13,3.13,0,0,0,3.32,3.41c2.5.09,5,.08,7.51,0,2-.06,3.15-1.06,3.27-3.06a68.2,68.2,0,0,0,0-8c-.11-2.11-1.32-3.1-3.43-3.19C299.56,413.93,298.37,414,297.18,414Z" transform="translate(-281.3 -404.89)" fill="#fff"/><path d="M297.18,414c1.19,0,2.38,0,3.57,0,2.11.09,3.32,1.08,3.43,3.19a68.2,68.2,0,0,1,0,8c-.12,2-1.27,3-3.27,3.06-2.5.08-5,.09-7.51,0a3.13,3.13,0,0,1-3.32-3.41q-.09-3.69,0-7.38c.05-2.17,1.24-3.33,3.44-3.42C294.72,413.93,296,414,297.18,414Zm-4.55,7.08a4.5,4.5,0,0,0,4.48,4.57,4.53,4.53,0,1,0,0-9.05A4.49,4.49,0,0,0,292.63,421.05Zm9.13-3.13c.51-.68,1.07-1.1,1.05-1.48a1.42,1.42,0,0,0-1-1c-.33,0-.95.59-1,1S301.29,417.23,301.76,417.92Z" transform="translate(-281.3 -404.89)"/><path d="M292.63,421.05a4.49,4.49,0,0,1,4.45-4.48,4.53,4.53,0,1,1,0,9.05A4.5,4.5,0,0,1,292.63,421.05Zm4.5,2.9a2.87,2.87,0,1,0-.07-5.73,2.88,2.88,0,0,0-2.84,2.9A2.85,2.85,0,0,0,297.13,424Z" transform="translate(-281.3 -404.89)" fill="#fff"/><path d="M301.76,417.92c-.47-.69-1-1.13-.94-1.51s.66-1,1-1a1.42,1.42,0,0,1,1,1C302.83,416.82,302.27,417.24,301.76,417.92Z" transform="translate(-281.3 -404.89)" fill="#fff"/><path d="M297.13,424a2.85,2.85,0,0,1-2.91-2.83,2.9,2.9,0,1,1,5.8,0A2.85,2.85,0,0,1,297.13,424Z" transform="translate(-281.3 -404.89)"/></svg>