<svg id="Capa_1" data-name="Capa 1" xmlns="http://www.w3.org/2000/svg" viewBox="0 0 31.82 31.91"><title>logo-facebook</title><path d="M296.49,404.89h1.66c.35.07.7.16,1.05.2a15.91,15.91,0,1,1-6.21.5C294.13,405.27,295.32,405.12,296.49,404.89ZM295,431.48h4v-9.7h3.23l.5-3.84h-3.93c.18-1.32,0-2.82.62-3.6s2.11-.62,3.35-.92c0-.05,0-.28,0-.51-.05-3.37.49-2.71-2.71-2.79s-5,1.7-5.06,4.92c0,.94,0,1.88,0,2.95h-3.21v3.77H295Z" transform="translate(-281.46 -404.89)"/><path d="M295,431.48v-9.72h-3.18V418H295c0-1.07,0-2,0-2.95,0-3.22,1.82-5,5.06-4.92s2.66-.58,2.71,2.79c0,.23,0,.46,0,.51-1.24.3-2.77.21-3.35.92s-.44,2.28-.62,3.6h3.93l-.5,3.84h-3.23v9.7Z" transform="translate(-281.46 -404.89)" fill="#fff"/></svg>