<svg xmlns="http://www.w3.org/2000/svg" id="Capa_1" data-name="Capa 1" viewBox="-3.91 -4 59.99 59.99"><title>logo-game-store</title><circle cx="63.64" cy="69.75" r="21.21" transform="translate(-68.24 21.68) rotate(-45)" fill="#282828"/><rect x="57.73" y="52.87" width="11.82" height="34.47" rx="2.38" transform="translate(96.18 -37.27) rotate(90)" fill="#5d5c52"/><rect x="19.35" y="20.45" width="13.46" height="11.82" fill="#282828"/><polygon points="40.03 26.36 36.09 24.09 36.09 28.64 40.03 26.36 36.09 24.09 36.09 28.64 40.03 26.36" fill="#fff"/><rect x="20.17" y="9.13" width="11.82" height="34.47" rx="2.38" fill="#5d5c52"/><circle cx="63.64" cy="69.94" r="3.61" transform="translate(-56.86 71.6) rotate(-76.4)" fill="#fff"/><polygon points="26.08 12.41 23.8 16.35 28.35 16.35 26.08 12.41 23.8 16.35 28.35 16.35 26.08 12.41" fill="#fff"/><polygon points="26.08 40.31 28.35 36.37 23.8 36.37 26.08 40.31 28.35 36.37 23.8 36.37 26.08 40.31" fill="#fff"/><polygon points="12.13 26.36 16.07 28.64 16.07 24.09 12.13 26.36 16.07 28.64 16.07 24.09 12.13 26.36" fill="#fff"/><circle cx="26.17" cy="26.17" r="24.67" fill="none" stroke="#282828" stroke-miterlimit="10" stroke-width="3"/><circle cx="63.72" cy="69.91" r="22.77" transform="translate(-52.93 78.04) rotate(-80.91)" fill="none" stroke="#5d5c52" stroke-miterlimit="10"/></svg>