<svg id="Capa_1" data-name="Capa 1" xmlns="http://www.w3.org/2000/svg" viewBox="0 0 53.96 53.85"><title>logo-ubicacion</title><path d="M296.33,393.89h3.34a5.64,5.64,0,0,0,.78.21,26.87,26.87,0,1,1-28.76,32.06c-.31-1.66-.46-3.35-.69-5v-.48a4.81,4.81,0,0,0,.19-.9A26.7,26.7,0,0,1,290.65,395C292.51,394.53,294.43,394.27,296.33,393.89ZM320.94,421c.06-12.37-10.15-22.91-22.26-23-13.15-.08-23.57,10.05-23.57,22.9a22.92,22.92,0,0,0,45.83.09Z" transform="translate(-271 -393.89)"/><path d="M298.09,439.52c-4.82-6.55-9.41-12.9-11.88-20.47a12.41,12.41,0,0,1,7.34-15.83,12,12,0,0,1,12.89,2.42c3.85,3.5,5,7.95,3.56,12.95a47,47,0,0,1-6.25,12.68C302,434,300.07,436.65,298.09,439.52ZM298,408.83A6.09,6.09,0,1,0,298.1,421a6.09,6.09,0,1,0-.13-12.18Z" transform="translate(-271 -393.89)"/></svg>